# xmcd CD database file
#
# Track frame offsets:
#	150
#	26786
#	48837
#	69151
#	98365
#	129777
#	139435
#	160538
#	168808
#	181055
#	209259
#	228438
#	259393
#
# Disc length: 3674 seconds
#
# Revision: 0
# Processed by: cddbd v1.5.2PL0 Copyright (c) Steve Scherf et al.
# Submitted via: CDex 1.70beta2
#
DISCID=9f0e580d
DTITLE=Giuffre, Jimmy - The Easy Way_Fusion
DYEAR=1961
DGENRE=Jazz
TTITLE0=The Easy Way
TTITLE1=Mack The Knife
TTITLE2=Come Rain Or Come Shine
TTITLE3=Careful
TTITLE4=Ray's Time
TTITLE5=A Dream
TTITLE6=Off Center
TTITLE7=Montage
TTITLE8=Time enough
TTITLE9=Jesus Maria
TTITLE10=Emphasis
TTITLE11=In the Mornings Out There
TTITLE12=Scootin' About
EXTD=YEAR: 1961
EXTT0=
EXTT1=
EXTT2=
EXTT3=
EXTT4=
EXTT5=
EXTT6=
EXTT7=
EXTT8=
EXTT9=
EXTT10=
EXTT11=
EXTT12=
PLAYORDER=
